<?xml version="1.0" standalone="no"?>
<!DOCTYPE svg PUBLIC "-//W3C//DTD SVG 1.1//EN" "http://www.w3.org/Graphics/SVG/1.1/DTD/svg11.dtd" >
<svg xmlns="http://www.w3.org/2000/svg">
<metadata>
Created by FontForge 20120731 at Wed Oct 21 10:30:27 2015
 By Ads
</metadata>
<defs>
<font id="iconfont" horiz-adv-x="1024" >
  <font-face 
    font-family="iconfont"
    font-weight="500"
    font-stretch="normal"
    units-per-em="1024"
    panose-1="2 0 6 3 0 0 0 0 0 0"
    ascent="812"
    descent="-212"
    x-height="792"
    bbox="0 -212 1024 812"
    underline-thickness="50"
    underline-position="-100"
    unicode-range="U+0078-E619"
  />
<missing-glyph horiz-adv-x="374" 
d="M34 0v682h272v-682h-272zM68 34h204v614h-204v-614z" />
    <glyph glyph-name=".notdef" horiz-adv-x="374" 
d="M34 0v682h272v-682h-272zM68 34h204v614h-204v-614z" />
    <glyph glyph-name=".null" horiz-adv-x="0" 
 />
    <glyph glyph-name="nonmarkingreturn" horiz-adv-x="341" 
 />
    <glyph glyph-name="x" unicode="x" horiz-adv-x="1001" 
d="M281 543q-27 -1 -53 -1h-83q-18 0 -36.5 -6t-32.5 -18.5t-23 -32t-9 -45.5v-76h912v41q0 16 -0.5 30t-0.5 18q0 13 -5 29t-17 29.5t-31.5 22.5t-49.5 9h-133v-97h-438v97zM955 310v-52q0 -23 0.5 -52t0.5 -58t-10.5 -47.5t-26 -30t-33 -16t-31.5 -4.5q-14 -1 -29.5 -0.5
t-29.5 0.5h-32l-45 128h-439l-44 -128h-29h-34q-20 0 -45 1q-25 0 -41 9.5t-25.5 23t-13.5 29.5t-4 30v167h911zM163 247q-12 0 -21 -8.5t-9 -21.5t9 -21.5t21 -8.5q13 0 22 8.5t9 21.5t-9 21.5t-22 8.5zM316 123q-8 -26 -14 -48q-5 -19 -10.5 -37t-7.5 -25t-3 -15t1 -14.5
t9.5 -10.5t21.5 -4h37h67h81h80h64h36q23 0 34 12t2 38q-5 13 -9.5 30.5t-9.5 34.5q-5 19 -11 39h-368zM336 498v228q0 11 2.5 23t10 21.5t20.5 15.5t34 6h188q31 0 51.5 -14.5t20.5 -52.5v-227h-327z" />
    <glyph glyph-name="uniE600" unicode="&#xe600;" 
d="M236 182h79v-79h-79v79zM315 261h79v-79h-79v79zM394 339h79v-78h-79v78zM473 418h78v-79h-78v79zM551 339h79v-78h-79v78zM630 261h79v-79h-79v79zM709 182h79v-79h-79v79z" />
    <glyph glyph-name="uniE601" unicode="&#xe601;" 
d="M518 710q-120 0 -204 -84t-84 -204q0 -45 30 -117.5t72 -144t84.5 -136.5t72.5 -106l29 -40q33 43 80.5 111t127.5 214.5t80 218.5q0 120 -84 204t-204 84zM525 300q-48 0 -81.5 33.5t-33.5 81.5t33.5 81.5t81.5 33.5t81.5 -33.5t33.5 -81.5t-33.5 -81.5t-81.5 -33.5z
" />
    <glyph glyph-name="uniE602" unicode="&#xe602;" 
d="M73 666v-732h805v732h-805zM805 593v-593v15l-117 183l-161 -139l-191 234l-190 -300v600h659zM139 -7h15h-15zM329 417zM293 417q0 15 10.5 26t25.5 11t26 -11t11 -26q0 -26 -24 -34q-7 -2 -13 -3q-7 0 -14 3t-12 8t-7.5 12t-2.5 14z" />
    <glyph glyph-name="uniE603" unicode="&#xe603;" 
d="M858 812h-692q-67 0 -116.5 -49.5t-49.5 -116.5v-692q0 -67 49.5 -116.5t116.5 -49.5h692q67 0 116.5 49.5t49.5 116.5v692q0 44 -22.5 82.5t-61 61t-82.5 22.5zM384 652q0 14 8 23t18 9h147q6 0 12.5 -9.5t6.5 -22.5v-64q0 -4 -0.5 -8t-2 -7t-3.5 -5l-4 -6
q-2 -2 -4.5 -3t-5.5 -2t-6 -1h-140q-10 0 -18 9t-8 23v64zM275 -20q-29 0 -56 20t-27 44v544q0 11 6.5 18t21.5 10t25.5 3.5t29.5 0.5h45v-90q0 -17 12.5 -27.5t51.5 -10.5h205q12 0 21 1t15 2t10 4.5t6.5 4.5t3.5 6t1.5 6t-0.5 8v6v90h52q16 0 25 -0.5t21 -3.5t18 -10
t6 -18v-326q0 4 -18 8t-33 4q-54 0 -96 -32q-39 -39 -51 -64q-13 -38 -13 -70q0 -37 16 -69t41 -53h-339v-6zM717 -20q-52 0 -90 36.5t-38 85t38 85t90 36.5q34 0 64 -17t47 -45t17 -59q0 -49 -38 -85.5t-90 -36.5zM621 236h-275q-7 0 -13 -3.5t-9.5 -9.5t-3.5 -13v-12
q0 -10 8 -18t18 -8h224q3 12 10.5 23.5t17 21t23.5 19.5zM346 300h268q10 0 18 8t8 18v12q0 10 -8 18t-18 8h-268q-10 0 -18 -8t-8 -18v-12q0 -10 8 -18t18 -8zM691 63l-38 39l-39 -39l77 -70l141 147l-32 38z" />
    <glyph glyph-name="uniE604" unicode="&#xe604;" 
d="M858 812h-692q-67 0 -116.5 -49.5t-49.5 -116.5v-692q0 -67 49.5 -116.5t116.5 -49.5h692q67 0 116.5 49.5t49.5 116.5v692q0 44 -22.5 82.5t-61 61t-82.5 22.5zM429 -7l-243 217l108 122l122 -115l352 352l109 -109z" />
    <glyph glyph-name="uniE605" unicode="&#xe605;" 
d="M510 662q97 0 180 -48t131.5 -131t48.5 -181q0 -74 -28.5 -140.5t-76.5 -114.5t-114.5 -76.5t-140.5 -28.5q-98 0 -180.5 48.5t-130 131.5t-47.5 182q0 73 28.5 139.5t76.5 114.5t114 76t139 28zM510 686q-103 0 -191 -51.5t-139.5 -139.5t-51.5 -191.5t51.5 -191.5
t139.5 -139.5t191.5 -51.5t191.5 51.5t139 139.5t51 191.5t-50.5 191.5t-139 139.5t-192.5 51.5zM433 324q-1 5 -2 14.5t3 23t16 17.5q3 1 3 7l-21 90l-2 3q-6 3 -8.5 4.5t-10.5 4.5t-14 2t-13.5 -5.5t-12.5 -14.5q-12 -22 -17 -42t-1.5 -48.5t18.5 -61.5q24 -48 81 -102.5
t89 -63.5q89 -24 112 -4q3 3 6 5.5t5 4.5l5 5q2 2 4 3l4 4q2 1 3 2l2 2l1 1l1 1l1 1l3 3q2 2 3 4.5t2 6t0.5 7t-3 7.5t-6.5 7l-22 18q-14 10 -25 19t-13 11q-1 0 -2 1t-2 1q-5 0 -8 -0.5t-8.5 -4t-9.5 -10.5q-20 -41 -51 -27q-11 3 -27 14t-32 25.5t-30 32t-21 32.5z" />
    <glyph glyph-name="uniE606" unicode="&#xe606;" 
d="M676 -151l-456 461l456 451l36 -36l-420 -415l420 -425z" />
    <glyph glyph-name="uniE607" unicode="&#xe607;" 
d="M448 620v-64h64v-64h64v-64h64v-64h64v-64h64v-64h-64v-64h-64v-64h-64v-64h-64v-64h-64v-64h-64v704h64z" />
    <glyph glyph-name="uniE608" unicode="&#xe608;" 
d="M576 620v-64h-64v-64h-64v-64h-64v-64h-64v-64h-64v-64h64v-64h64v-64h64v-64h64v-64h64v-64h64v704h-64z" />
    <glyph glyph-name="uniE609" unicode="&#xe609;" 
d="M410 465l-52 -65l-2 -5q-2 -3 -3.5 -11.5t3.5 -12.5q4 -6 15 -20.5t20 -26.5t10 -15q6 -9 6 -24.5t-12 -27.5q-4 -4 -18.5 -20t-31.5 -35t-33.5 -37.5t-27.5 -30.5l-11 -13q-14 -20 0 -37q6 -8 20.5 -22t25.5 -25l11 -10q3 -2 7 -4t14.5 0.5t18.5 14.5q3 6 10.5 18.5
t16 27.5t18.5 32t19 33t16.5 29t11.5 20l4 8q1 1 2.5 3t6 7t8.5 8.5t10 6t10 1.5l55 -12q3 0 8 0.5t15.5 3.5t15.5 8q4 4 10 12t12.5 16t12.5 16t10 13l4 5zM660 314l23 23q7 21 0 20h-9v20q0 8 -2.5 10.5t-6 2t-9.5 -2.5t-10 -2q-5 0 -9 1.5t-6 4t-3 5.5t1 6q0 17 -17 17
q-10 0 -14 5.5t-4 12.5q0 3 -0.5 6t-3.5 4.5t-7 0.5q-7 -2 -12 0.5t-5 10.5q0 15 -11 15q-2 0 -5.5 -0.5t-6 -0.5t-5 0.5t-3.5 2.5q-1 5 -0.5 10t2 15t1.5 15q0 7 -3 8t-9 -0.5t-8 -1.5q-4 0 -6 3t-3 5v3v32q0 10 -7 12t-14 -1l-7 -3l-11 -11q-6 -6 -19.5 -20.5t-18.5 -22.5
q-6 -6 -6.5 -14t1.5 -13l3 -4zM572 491q-3 -5 4.5 -12.5t15.5 -7.5q9 0 13 -3t4 -12q0 -4 2 -7.5t4.5 -6t6 -4t7.5 -1.5q11 0 11 -9q0 -4 2.5 -7.5t6.5 -5t8 -1.5q4 1 7.5 0.5t6.5 -2.5t6 -7q8 -11 34 -11q9 0 9.5 -10.5t-1 -23t5.5 -23.5q8 -10 16.5 -9.5t17 8.5t12.5 21
q4 11 4 25t-2 26.5t-2 13.5q0 6 -4.5 10.5t-7.5 4.5q-8 0 -17 19q-1 5 -5 7.5t-9.5 3t-11 0.5t-12.5 -1.5t-11.5 -2.5t-10.5 -2t-8 -2q-6 -1 -11 4t-7 9t-4 11q0 1 -1 2q0 3 -1.5 4.5t-3.5 1.5h-4h-2l-1 -1q-2 0 -3.5 0.5t-3.5 4t-3 10.5q-2 8 -6.5 12.5t-10 6t-15.5 1.5
q-4 0 -9 -3t-9 -6.5t-8 -7.5l-6 -6l-2 -3q5 3 8 0.5t1 -8.5zM734 317q-20 0 -26 -23q-2 -7 1.5 -25.5t7.5 -33.5q0 -9 4 -8q4 0 4 5q0 2 5 2t7 -2q18 -18 22 -6t3.5 23.5t-3.5 16.5q-1 4 -3 15t-2 16q0 4 -1.5 8.5t-6 8.5t-12.5 3zM808 67q-8 2 -19 6l-10 3v-1v2q-4 4 1 6
q1 0 2 1q11 3 4 10q-5 5 -15 7h-11q-8 0 -15.5 0.5t-14.5 1t-12 0.5l-4 1l-37 -1q-19 -4 -14 -13q8 -3 0 -6q-2 -1 -9 -2q-4 -1 -6.5 -1.5t-7 -1.5t-7 -2t-5 -3t-4 -4.5t-1.5 -5.5q0 -5 3 -8t7 -4.5t8.5 -2t6.5 0.5h3l9 -6q3 -3 0 -6t-2.5 -6t3.5 -5.5t7 -2.5q2 0 8.5 -0.5
t15.5 -1t20.5 -1t27 0t31.5 2.5q1 0 2.5 0.5t5 1.5t5.5 3t4 5t0 7q0 1 -0.5 2t1 2.5t5.5 1.5q15 0 22 8q6 6 -8 12z" />
    <glyph glyph-name="uniE60A" unicode="&#xe60a;" 
d="M284 328h200v200h-200v-200zM313 499h142v-142h-142v142zM356 454h56v-57h-56v57zM284 72h200v200h-200v-200zM313 243h142v-142h-142v142zM356 198h56v-57h-56v57zM540 272h57v-57h-57v57zM623 272h57v-57h-57v57zM540 181h57v-57h-57v57zM740 528h-200v-200h200v200z
M711 357h-142v142h142v-142zM609 454h57v-57h-57v57zM711 272v-86h-85v-85h-86v-29h86h28h86v200h-29zM711 101h-57v57h57v-57z" />
    <glyph glyph-name="uniE60B" unicode="&#xe60b;" 
d="M711 317v-273h-398v427h310l28 28h-367v-483h456v330zM451 257l201 201l81 -81l-202 -201zM785 428l-23 -23q-2 -3 -5.5 -4t-6.5 0t-5 4l-62 63q-5 4 -5 9.5t5 7.5l22 23q3 2 5.5 3t4.5 1t4 -1t3 -3l63 -63q6 -6 0 -17zM512 155h-80v82z" />
    <glyph glyph-name="uniE60C" unicode="&#xe60c;" 
d="M728 272q-4 19 -12 31t-19 20q-6 5 -6 11q2 22 -2 45t-15.5 52t-39 55t-68.5 42q-10 3 -15.5 4.5t-15 2.5t-23.5 1q-20 0 -29.5 -2t-21.5 -6q-42 -16 -70 -42t-39 -55t-14.5 -51.5t-1.5 -45.5q0 -4 -1.5 -6t-4.5 -5q-24 -15 -31 -51q-5 -28 -6.5 -44t0.5 -22
q29 -72 102 -23q6 6 6 9v108q0 5 -6.5 12t-16.5 11l-2 2q-1 1 -2 3l-2 2l-2 4q-2 18 0.5 36.5t11.5 42.5t32 45.5t58 34.5q23 6 40 6q31 0 43 -6q35 -14 58.5 -35.5t32.5 -45.5t12 -42.5t2 -35.5q0 -4 -2 -6.5t-7 -4.5q-10 -4 -17.5 -11.5t-7.5 -11.5v-108q0 -9 5 -9
q2 0 5.5 -2.5t6.5 -4.5t6.5 -4.5t5.5 -3.5l2 -2q0 -1 0.5 -7t-2.5 -16t-9 -17l-2 -1l-1 -1v-1h-1l-2 -2q-13 -13 -24.5 -21.5t-39 -17t-64.5 -10.5q0 3 -6 9l-28 14q-11 6 -21.5 1.5t-12.5 -15.5l-3 -9q-4 -10 1 -19.5t16 -14.5l31 -8q8 -3 14 8v3h3q35 0 62 5.5t46 16.5
t26.5 17t19.5 18l1 1l1 1l1 1l1 1l2 2q20 20 20 54q32 0 48 42q2 7 1 27.5t-7 44.5z" />
    <glyph glyph-name="uniE60D" unicode="&#xe60d;" 
d="M532 437q-3 2 -8 3.5t-8 1.5h-4h-28q-15 0 -20 -5l-208 -202v-80l239 230h6l239 -230v80z" />
    <glyph glyph-name="uniE60E" unicode="&#xe60e;" 
d="M649 168q-2 -2 -3 -4.5t-1.5 -7t-0.5 -6.5v-8q3 3 9.5 8.5t11.5 10.5t9 11q-21 0 -25 -4zM448 44q-131 0 -225.5 94.5t-94.5 225.5t94.5 225.5t225.5 94.5t225.5 -94.5t94.5 -225.5q0 -115 -73 -201l6 -2l5 -1q1 -1 3 -2.5t4 -2.5q17 22 30.5 47t23 51.5t14 55.5t4.5 59
q0 46 -12.5 90.5t-34.5 82t-53.5 69t-69 53.5t-81.5 34.5t-90 12.5q-93 0 -171.5 -46t-124.5 -124.5t-46 -171t46 -171t124.5 -124.5t171.5 -46q115 0 213 77q-3 3 -5.5 9t-2.5 12q-75 -81 -201 -81zM448 684q-131 0 -225.5 -94.5t-94.5 -225.5t94.5 -225.5t225.5 -94.5
q119 0 205 73q-2 3 -4 11t-5 10q-39 -36 -90.5 -56.5t-105.5 -20.5q-125 0 -212 87t-87 212t87 211.5t212 86.5q61 0 116.5 -23t95.5 -63t63.5 -95.5t23.5 -116.5q0 -113 -73 -192q4 0 21 -9q34 44 53.5 95t19.5 106q0 88 -43 162.5t-117 118t-160 43.5zM883 -20l-145 154
q-13 12 -21 17q-13 -16 -26.5 -29.5t-29.5 -26.5q9 -17 13 -21l145 -154q13 -13 30 -13t30 13q13 14 15 30.5t-11 29.5zM717 151q-3 3 -8.5 5.5t-8.5 2.5q-6 -7 -13.5 -14.5t-16.5 -15.5t-13 -12q2 -5 4 -11.5t5 -10.5q8 9 25 28t26 28zM644 142q0 -3 1 -6l2 -6
q1 -3 2.5 -5.5t3.5 -3.5q6 4 12 10t10.5 11t10.5 11.5t9 9.5q-4 3 -10.5 5t-10.5 4q-12 -18 -30 -30z" />
    <glyph glyph-name="uniE60F" unicode="&#xe60f;" 
d="M158 418v-79h78v-78h79v-79h79v-79h79v-79h78v79h79v79h79v79h79v78h78v79h-708z" />
    <glyph glyph-name="uniE610" unicode="&#xe610;" 
d="M158 103v79h78v79h79v78h79v79h79v79h78v-79h79v-79h79v-78h79v-79h78v-79h-708z" />
    <glyph glyph-name="uniE615" unicode="&#xe615;" 
d="M522 756l138 -282q0 -2 1 -3.5t3 -3t5 -2.5t7 -1l312 -46q11 0 14.5 -11.5t-4.5 -19.5l-230 -215q-5 -5 -5 -15l51 -308q0 -11 -7 -17.5t-19 -2.5l-276 148q-8 8 -15 0l-277 -148q-4 -2 -8.5 -1t-8 3.5t-6 7.5t-2.5 10l51 308q0 10 -5 15l-226 220q-7 8 -4 17.5t15 13.5
l312 46q5 0 15 10l139 282q3 8 13 7t17 -12z" />
    <glyph glyph-name="uniE616" unicode="&#xe616;" 
d="M307 -151l456 461l-456 451l-36 -36l420 -415l-420 -425z" />
    <glyph glyph-name="uniE617" unicode="&#xe617;" 
d="M805 519h-74v147h-658v-585h73v512h512v-74h-439v-438v-147h659v585h-73zM805 29l-110 103l-110 -73l-139 139l-153 -147v30v365h438h74v-417zM410 344zM380 344q0 12 8.5 20.5t21.5 8.5q6 0 11 -2t9 -6t6.5 -9.5t2.5 -11.5t-2.5 -11.5t-6.5 -9.5t-9 -6t-11 -2
q-13 0 -21.5 8.5t-8.5 20.5z" />
    <glyph glyph-name="uniE618" unicode="&#xe618;" 
d="M158 654h78v-78h-78v78zM236 576h79v-79h-79v79zM315 497h79v-79h-79v79zM394 418h79v-79h-79v79zM473 339h78v-78h-78v78zM551 261h79v-79h-79v79zM630 182h79v-79h-79v79zM709 103h79v-79h-79v79zM788 654h78v-78h-78v78zM709 576h79v-79h-79v79zM630 497h79v-79h-79
v79zM551 418h79v-79h-79v79zM394 261h79v-79h-79v79zM315 182h79v-79h-79v79zM236 103h79v-79h-79v79zM788 24h78v-78h-78v78zM158 24h78v-78h-78v78z" />
    <glyph glyph-name="uniE619" unicode="&#xe619;" 
d="M236 418h79v-79h-79v79zM315 339h79v-78h-79v78zM394 261h79v-79h-79v79zM473 182h78v-79h-78v79zM551 261h79v-79h-79v79zM630 339h79v-78h-79v78zM709 418h79v-79h-79v79z" />
  </font>
</defs>
</svg>
