<?xml version="1.0" encoding="utf-8"?>
<!-- Generator: Adobe Illustrator 19.0.0, SVG Export Plug-In . SVG Version: 6.00 Build 0)  -->
<svg version="1.1" id="图层_1" xmlns="http://www.w3.org/2000/svg" xmlns:xlink="http://www.w3.org/1999/xlink" x="0px" y="0px"
	 viewBox="0 0 24 29" style="enable-background:new 0 0 24 29;" xml:space="preserve">
<style type="text/css">
	.st0{fill:#FFFFFF;}
	.st1{fill:#DA1521;}
	.st2{fill:#EA5024;}
	.st3{fill:#F5CB1E;}
	.st4{fill:#F1BA34;}
	.st5{fill:#F0A42C;}
	.st6{fill:#EFEA3A;}
	.st7{fill:#F3D13D;}
</style>
<image style="display:none;overflow:visible;" width="259" height="319" id="XMLID_2_" xlink:href="Capa-111.png"  transform="matrix(9.266409e-002 0 0 9.090909e-002 0 0)">
</image>
<g id="XMLID_15_">
	<polygon id="XMLID_1_" class="st0" points="6,14.2 6,14.2 6,14.2 6,14.2 6,14.2 6,14.2 6,14.2 6,14.2 	"/>
	<polygon id="XMLID_3_" class="st0" points="14.3,12.7 14.3,12.7 14.3,12.7 14.3,12.7 14.3,12.7 14.3,12.7 14.3,12.7 14.3,12.7 	"/>
	<path id="XMLID_13_" class="st1" d="M7,28.6l-2-2.7l-3.5-0.4c-0.5-0.3-0.3-0.7,0-1.1l6.1-9.9c0.3-0.5,0.9-0.6,1.4-0.3l4.6,2.8
		c0.5,0.3,0.6,0.9,0.3,1.4l-6.1,9.9C7.5,28.6,7.5,28.9,7,28.6z"/>
	<g id="XMLID_14_">
		<path id="XMLID_18_" class="st2" d="M13.5,16.9l-2.1-1.3L5,25.9l0,0l2,2.7c0.5,0.3,0.5,0,0.8-0.4l6.1-9.9
			C14.1,17.8,14,17.2,13.5,16.9z"/>
	</g>
	<path id="XMLID_17_" class="st1" d="M17,28.6l2-2.7l3.5-0.4c0.5-0.3,0.3-0.7,0-1.1l-6.1-9.9c-0.3-0.5-0.9-0.6-1.4-0.3l-4.6,2.8
		c-0.5,0.3-0.6,0.9-0.3,1.4l6.1,9.9C16.5,28.6,16.5,28.9,17,28.6z"/>
	<g id="XMLID_19_">
		<path id="XMLID_20_" class="st2" d="M22.6,24.3l-6.1-9.9c-0.3-0.5-0.9-0.6-1.4-0.3l-2.4,1.5L19,25.9l0,0l3.5-0.4
			C23,25.2,22.8,24.8,22.6,24.3z"/>
	</g>
	<path id="XMLID_4_" class="st3" d="M18.6,20.5H5.4c-1.7,0-3-1.3-3-3V5.6c0-1.6,1.3-3,3-3h13.2c1.6,0,3,1.3,3,3v11.9
		C21.6,19.1,20.2,20.5,18.6,20.5z"/>
	<path id="XMLID_5_" class="st3" d="M23,13.2l-9.3,9.3c-1.2,1.2-3.1,1.2-4.2,0L1,14.1c-1.2-1.2-1.2-3.1,0-4.2l9.3-9.3
		c1.2-1.2,3.1-1.2,4.2,0L23,9C24.2,10.2,24.2,12.1,23,13.2z"/>
	<ellipse id="XMLID_8_" class="st4" cx="12.1" cy="11.7" rx="7.6" ry="7.5"/>
	<g id="XMLID_10_">
		<g id="XMLID_57_">
			<path id="XMLID_58_" class="st5" d="M17,5.9c1.1,1.3,1.7,3,1.7,4.8c0,4.2-3.4,7.5-7.6,7.5c-1.8,0-3.5-0.7-4.8-1.7
				c1.4,1.7,3.5,2.7,5.8,2.7c4.2,0,7.6-3.4,7.6-7.5C19.7,9.3,18.6,7.2,17,5.9z"/>
		</g>
	</g>
	<path id="XMLID_7_" class="st0" d="M8,3.3c0,0,0.2,1.1-1.5,1.7C6.5,5,8,5.3,8,6.6c0,0,0.5-1.7,1.6-1.6C9.7,5.1,8.1,4.5,8,3.3z"/>
	<path id="XMLID_9_" class="st0" d="M5.8,12.3c0,0,0.5,2.6,2.5,2.6c0,0-1.9,0.2-2.5,2.4c0,0-0.2-1.9-2.4-2.4
		C3.3,14.9,5.8,14.7,5.8,12.3z"/>
	<path id="XMLID_11_" class="st0" d="M19.3,9.9c0,0,0.1,0.7-0.9,0.9c0,0,1,0.3,0.9,1c0,0,0.2-0.9,1-0.9C20.3,10.9,19.6,11,19.3,9.9z
		"/>
	<polygon id="XMLID_6_" class="st6" points="13.8,14.3 12,13.4 10.2,14.3 10.6,12.4 9.1,11 11.1,10.7 12,8.9 12.9,10.7 14.9,11 
		13.4,12.4 	"/>
	<polygon id="XMLID_12_" class="st7" points="13.8,14.3 12,13.4 10.2,14.3 14.9,11 13.4,12.4 	"/>
</g>
</svg>
